<svg xmlns="http://www.w3.org/2000/svg" viewBox="0 0 576.67 176.82"><defs><style>.cls-1{fill:#00d3c8;}.cls-2,.cls-3,.cls-5{fill:#606060;}.cls-3{font-size:86.6px;font-family:Trenda-Semibold, Trenda;font-weight:700;}.cls-4{letter-spacing:-0.01em;}.cls-5{font-size:85.59px;font-family:Trenda-Light, Trenda;letter-spacing:-0.02em;}.cls-6{letter-spacing:0em;}.cls-7{letter-spacing:-0.03em;}</style></defs><title>eoswall-whitebg</title><g id="Capa_2" data-name="Capa 2"><g id="Capa_1-2" data-name="Capa 1"><rect class="cls-1" x="47.1" y="26.03" width="22.16" height="20.88"/><path class="cls-2" d="M118.84,141,98,53.68a1.51,1.51,0,0,0-.23-.52L60.28.63A1.52,1.52,0,0,0,59.06,0h0a1.5,1.5,0,0,0-1.21.62L19.6,53.15a1.49,1.49,0,0,0-.25.56L0,141a1.49,1.49,0,0,0,.7,1.61l57,33.66a1.5,1.5,0,0,0,1.14.54h.19a1.54,1.54,0,0,0,.76-.2l58.33-34A1.51,1.51,0,0,0,118.84,141Zm-60,29.31-4.78-15.15h9.46ZM60.18,7.13h1L74.12,25.21H60.18ZM48.63,88.64V70.57H68.14V88.64H48.63Zm19.51,24.21v18.08H48.63V112.85H68.14ZM47.1,67.5h-10V49.42h20V67.5Zm13.08,0V49.42H79.69V67.5H60.18Zm11-21.15V28.28h5.1L89.2,46.35h-18ZM68.14,28.28V46.35H48.63V28.28H68.14Zm-11-21.15V25.21H43.65L56.81,7.13ZM45.57,28.28V46.35H28.26L41.42,28.28ZM26,49.42h8V67.5H26.44l-4.1-13Zm9.52,21.15h10V88.64H33.11l-5.7-18.07Zm1.54,21.14h20v18.08H39.77l-2.68-8.52Zm8.48,21.14v15.32l-4.83-15.32ZM57.12,134v18.07h-4L47.41,134Zm7.35,18.07H60.18V134h9.88Zm7.26-23.49V112.85h4.86Zm5.81-18.79H60.18V91.71H79.69v11.1Zm6.53-21.15H71.21V70.57H89.65ZM90.6,67.5H83.28V49.42h8.11l3.35,4.69ZM21,60.19,56.21,171.9l-53-31.31Zm40.4,112L96.25,59.36l19.41,81.23Z"/><text class="cls-3" transform="translate(141.8 122.27)"><tspan class="cls-4">E</tspan><tspan x="51.96" y="0">OS </tspan></text><text class="cls-5" transform="translate(319.78 122.52)">W<tspan class="cls-6" x="76.86" y="0">AL</tspan><tspan class="cls-7" x="181.45" y="0">L</tspan></text><rect class="cls-1" x="560.99" y="106.83" width="15.69" height="15.69"/></g></g></svg>