<svg xmlns="http://www.w3.org/2000/svg" viewBox="0 0 576.67 176.82"><defs><style>.cls-1{fill:#00d3c8;}.cls-2{fill:#cecece;}.cls-3{fill:#f7f7f7;}</style></defs><title>logo</title><g id="Capa_2" data-name="Capa 2"><g id="Capa_1-2" data-name="Capa 1"><rect class="cls-1" x="47.1" y="26.03" width="22.16" height="20.88"/><polygon class="cls-2" points="57.56 170.63 58.52 173.63 59.32 173.63 60.25 170.63 57.56 170.63"/><path class="cls-3" d="M118.84,141,98,53.68a1.51,1.51,0,0,0-.23-.52L60.28.63A1.52,1.52,0,0,0,59.06,0h0a1.5,1.5,0,0,0-1.21.62L19.6,53.15a1.49,1.49,0,0,0-.25.56L0,141a1.49,1.49,0,0,0,.7,1.61l57,33.66a1.5,1.5,0,0,0,1.14.54h.19a1.54,1.54,0,0,0,.76-.2l58.33-34A1.51,1.51,0,0,0,118.84,141Zm-60,29.31-4.78-15.15h9.46ZM60.18,7.13h1L74.12,25.21H60.18ZM48.63,88.64V70.57H68.14V88.64H48.63Zm19.51,24.21v18.08H48.63V112.85H68.14ZM47.1,67.5h-10V49.42h20V67.5Zm13.08,0V49.42H79.69V67.5H60.18Zm11-21.15V28.28h5.1L89.2,46.35h-18ZM68.14,28.28V46.35H48.63V28.28H68.14Zm-11-21.15V25.21H43.65L56.81,7.13ZM45.57,28.28V46.35H28.26L41.42,28.28ZM26,49.42h8V67.5H26.44l-4.1-13Zm9.52,21.15h10V88.64H33.11l-5.7-18.07Zm1.54,21.14h20v18.08H39.77l-2.68-8.52Zm8.48,21.14v15.32l-4.83-15.32ZM57.12,134v18.07h-4L47.41,134Zm7.35,18.07H60.18V134h9.88Zm7.26-23.49V112.85h4.86Zm5.81-18.79H60.18V91.71H79.69v11.1Zm6.53-21.15H71.21V70.57H89.65ZM90.6,67.5H83.28V49.42h8.11l3.35,4.69ZM21,60.19,56.21,171.9l-53-31.31Zm40.4,112L96.25,59.36l19.41,81.23Z"/><path class="cls-3" d="M190.46,114.39v7.88H149.85V61.39h40.53v8H158.77v18.1h27.71v8H158.77v19Z"/><path class="cls-3" d="M197.74,91.87c0-17.58,13.42-31.26,31.87-31.26S261.3,74.12,261.3,91.87,248,123.05,229.61,123.05,197.74,109.54,197.74,91.87Zm54.47,0c0-13-9.7-23-22.6-23s-22.78,10.13-22.78,23c0,13.25,9.79,22.95,22.78,22.95S252.21,105.21,252.21,91.87Z"/><path class="cls-3" d="M268,116.29l4.59-7.27a29,29,0,0,0,17.92,6.15c7,0,11.95-3.3,11.95-9.36,0-5.8-3.81-8.74-13.68-11.17-11.17-2.85-18.36-7.18-18.36-17.23,0-9.87,8.58-16.8,20.61-16.8,9,0,15.07,2.34,19.4,5.89l-4.24,6.75c-4.25-3.11-8.49-4.76-15.16-4.76-6.84,0-11.6,3-11.6,8.49s4.42,7.44,13.08,9.7c11.86,3.11,19,7.7,19,18.44,0,11.34-9,17.93-20.87,17.93C281.22,123.05,273.68,120.62,268,116.29Z"/><path class="cls-3" d="M396.9,62.35l-17,60.17H376.7L359.15,68.94l-17.54,53.58h-3.08L321.41,62.35h4.36l5.65,20.72,8.9,32.77,10.19-32,7.1-21.48h3.25L368,83.83l10.27,32.1,8.9-32.86,5.65-20.72Z"/><path class="cls-3" d="M441.66,108.06H408L402,122.52h-4.28l25.5-60.17h3.51l25.42,60.17h-4.36Zm-32.09-3.68h30.55L424.89,68Z"/><path class="cls-3" d="M500.12,118.84v3.68H462.29V62.35h4v56.49Z"/><path class="cls-3" d="M548.22,118.84v3.68H510.39V62.35h4v56.49Z"/><rect class="cls-1" x="560.99" y="106.83" width="15.69" height="15.69"/></g></g></svg>